<svg id="Capa_1" xmlns="http://www.w3.org/2000/svg" xmlns:xlink="http://www.w3.org/1999/xlink" viewBox="0 0 283.5 57.6"><style>.st0,.st1,.st2,.st3{clip-path:url(#SVGID_2_);fill:#fff}.st1,.st2,.st3{fill:#e5004d}.st2,.st3{fill:#dadada}.st3{fill:#c51343}.st5,.st6{clip-path:url(#SVGID_4_);fill:#dadada}.st6{fill:#c51343}.st8{clip-path:url(#SVGID_6_);fill:#dadada}.st11,.st12{clip-path:url(#SVGID_10_);fill:#c51343}.st12{fill:#dadada}</style><defs><path id="SVGID_1_" d="M0 0h283.5v57.6H0z"/></defs><clipPath id="SVGID_2_"><use xlink:href="#SVGID_1_" overflow="visible"/></clipPath><path class="st0" d="M65.9 11C63.8 6.3 59.8 2.7 55 1c-.1 0-.2-.1-.3-.1-.1 0-.3-.1-.4-.1-1.8-.6-3.7-.8-5.6-.8h-1c-5.4.3-10.5 3-14.4 7.6-.4-.6-4.5-5.6-10-7.1h-.1c-.7-.2-1.4-.3-2.1-.4-.9-.1-1.8-.1-2.6-.1C8.9-.2 0 7.3 0 19.3c0 18.8 10.8 33 33.6 38.3h.8c17.4-4 28.4-13.4 32.1-27.2v-.1c0-.1 0-.2.1-.3.2-.6.3-1.3.4-1.9V28c0-.1.1-.3.1-.4 2-11.4-1.2-16.6-1.2-16.6"/><path class="st1" d="M23.5 14.1c.2-.6.7-1.2 1.4-1.5.6-.2 1.2-.3 1.9-.2.6.1 1.1.4 1.5.9.1.1.1.2.1.3 0 .1-.1.2-.2.2-.5.2-1 .3-1.4.4-.4.1-.7.2-1 .3-.5.2-.9.5-1.6 1.4-.1.1-.2.1-.3.1-.1 0-.2-.1-.3-.2-.2-.4-.3-1.1-.1-1.7M33.9 56c17.7-4.1 28.5-13.8 31.4-28.3-1.1 2.1-2.4 3.7-3.7 5-2.1 2-4.5 3.3-6.8 3.8-.2 0-.3-.1-.4-.2l-.1-.4c0-.1 0-.3.2-.4 2-1.1 3.7-2.6 4.9-4.6 1.4-2 2.2-4.4 2.7-6.2.3-1 .5-2.1.7-3.1.2-1.2.4-2.5.9-3.7.6-1.6 1.1-2.9 1.6-4.1-2-6.2-7-10.7-13.2-11.9C45.5.6 38.8 3.3 34.2 9.1l-.1.1c-.2.3-.4.6-.6.8.2.2.4.3.6.4.5.4 1.1.6 1.5.7.3.1.5.1.7.1h.5l.2-.1c.8-.2 1.4-.3 2-.3.9 0 1.6.1 2.2.3.4.2.8.4 1.1.7.3.3.6.7.7 1.1.2.4.2.8.3 1.2v.8c.1.1.1.3.2.4.1.3.2.5.3.8.2.5.3 1.1.4 1.6.2 1.2.1 2.3-.3 3.4-.2.5-.4 1.1-.7 1.6-.3.5-.6.9-1 1.3-.7.8-1.5 1.4-2.5 2-1.8 1.1-3.9 1.8-6 2-1.1.1-2.1 0-3.2-.2-.5-.1-1-.2-1.5-.4-.1 0-.2-.1-.3-.1.1.5.1.9.2 1.3.1.5.3.8.5 1.2.2.4.5.7.8 1 .2.1.2.4.1.6-.1.2-.3.2-.5.1-.5-.3-.9-.6-1.2-1-.3-.4-.6-.8-.8-1.3-.2-.5-.4-1-.5-1.4-.1-.6-.2-1-.2-1.5 0-.4.3-.8.7-.9h.4c.8.3 1.7.4 2.6.5.9.1 1.8 0 2.7-.1 1.7-.2 3.4-.9 4.9-1.8 1.7-1.1 2.8-2.3 3.4-3.6.3-.7.4-1.5.3-2.3 0-.4-.1-.8-.3-1.2-.1-.2-.1-.4-.2-.6-.1-.2-.2-.4-.3-.5-.2-.3-.2-.6-.1-.8v-.3-.3c0-.2 0-.4-.1-.6-.1-.3-.3-.6-.7-.7-.4-.2-.8-.2-1.4-.2-.5 0-1 .1-1.6.2-.1 0-.1 0-.2.1-.2 0-.3.1-.4.1-.2 0-.5.1-.7 0-.4 0-.8-.1-1.2-.2-.7-.2-1.3-.6-2-1.1-1-.8-2-1.7-3-3-.4-.5-.8-1.1-1.2-1.7-.4-.6-.7-1.1-1.1-1.6C27 4.5 26 3.6 25 3c-.7-.4-1.4-.7-2.2-1-5.1-1.1-10.4.1-14.5 3.3-4.2 3.4-6.5 8.5-6.5 14.4 0 1.3.1 2.6.2 3.9.2.9.4 1.8.7 2.6.3 1 .8 2 1.4 3 1.2 2 2.8 3.5 4.5 4.4.4.2.9.4 1.4.6.2.1.3.1.4.1.1 0 .2.1.3.1.1 0 .2 0 .3.1.1 0 .3.1.4.1 1 .2 2.1.4 3.1.3.8 0 1.5-.2 2.2-.5.2-.8.2-1.4.1-1.9-.2-.7-.5-1.1-.9-1.7-.4-.5-.9-1-1.7-1.7-.5-.4-1-.8-1.5-1.3l-.7-.5c-.6-.5-1.4-1.2-2-2.1-.6-.9-1-2-1.1-3-.1-1 .2-2.1.7-3 .5-.8 1.2-1.4 2-1.8.1-.1.2 0 .3 0 .1.1.1.2.1.3-.4 1.4-.4 2.8.2 3.6.3.4.6.7 1 1 .1.1.2.1.3.2.1.1.3.2.4.3l.6.3c1.1.5 2.1 1.2 3.1 2.1 1.1 1 1.9 2.1 2.4 3.3.5 1.1.6 2.4.4 3.5v.2l-.3.9c0 .1-.1.2-.2.3V33.7c-.1.1-.1.2-.1.3-.3.6-.8 1.1-1.3 1.5-.9.7-2 1.2-3.5 1.5-.2.1-.5.1-.8.2h-.3c-.3 0-.6.1-.9.1-.7 0-1.3 0-1.9-.2-1.2-.2-2.3-.8-3.5-1.5-1-.7-1.9-1.5-2.8-2.5-.6-.3-.8-.7-1.1-1.1 4 12.1 14.4 20.4 30.2 24"/><path class="st2" d="M49.2 1.4c-2.9 0-5.7.7-8.3 2.1 2.5-1.3 5.2-1.9 7.9-1.9 1.1 0 2.2.1 3.2.3 2.5.5 4.8 1.5 6.8 2.9.4.1.7.2 1 .4-2.1-1.7-4.7-2.9-7.5-3.5-.9-.2-2-.3-3.1-.3"/><path class="st3" d="M48.9 1.6c-2.7 0-5.4.7-7.9 1.9-2.4 1.3-4.6 3.1-6.4 5.4l-.1.1c-.2.2-.3.5-.5.7 5-3.9 10.8-6.1 16.9-6.1 2.7 0 5.4.4 8 1.3-2-1.4-4.3-2.5-6.8-2.9-1.1-.3-2.2-.4-3.2-.4"/><path class="st2" d="M19.3 1.4c-2.8 0-5.5.7-8 2 2.4-1.2 5-1.8 7.7-1.8 1.3 0 2.5.1 3.8.4.7.2 1.3.5 1.9.8h.6c-.7-.4-1.4-.7-2.1-1-1.3-.2-2.6-.4-3.9-.4m-2.6 32.9v.1c.1 0 .2-.1.3-.1-.1.1-.2 0-.3 0"/><path class="st3" d="M19 1.6c-2.7 0-5.3.6-7.7 1.8-.9.5-1.8 1.1-2.6 1.7-4.2 3.4-6.5 8.5-6.5 14.4 0 1.3.1 2.6.2 3.9.2.9.4 1.8.7 2.6.3 1 .8 2 1.4 3 1.2 2 2.8 3.5 4.5 4.4.4.2.9.4 1.4.6.2.1.3.1.4.1.1 0 .2.1.3.1.1 0 .2 0 .3.1.1 0 .3.1.4.1.9.2 1.8.3 2.7.3h.3c.7 0 1.3-.1 1.9-.3v-.1C2.4 32.8 4.5 17.2 4.5 17.2 7.1 3.2 18.9 3.1 24.7 2.8c-.6-.3-1.2-.6-1.9-.8-1.3-.3-2.5-.4-3.8-.4"/><path class="st0" d="M28.4 13.6c0-.1 0-.2-.1-.3-.4-.5-.9-.8-1.5-.9-.7-.1-1.3-.1-1.9.2-.7.3-1.2.9-1.4 1.5-.2.6-.2 1.3.2 1.9.1.1.1.1.3.2.1 0 .2 0 .2-.1.7-.9 1.1-1.2 1.6-1.4.3-.1.6-.2 1-.3.4-.1.8-.2 1.4-.4.1-.2.2-.3.2-.4"/><path class="st2" d="M64.4 29.3c-.8 1.3-1.7 2.3-2.6 3.3.9-1 1.7-2 2.6-3.3m-2.7 3.2c0 .1 0 .1 0 0 0 .1 0 .1 0 0m-.1.2c-2.1 2-4.5 3.3-6.8 3.8h-.1c-.1 0-.2 0-.2-.1.1.1.1.1.2.1h.1c2.3-.5 4.7-1.8 6.8-3.8M31.7 55.4zm.2.1s.1 0 0 0c.1 0 .1 0 0 0m.1 0s.1 0 0 0c.1 0 0 0 0 0m.2 0s0 .1 0 0c0 .1 0 0 0 0m3.5.1c-.1 0-.1 0 0 0-.1 0-.1 0 0 0M35.6 55.6s-.1 0 0 0m-3.3 0c.1 0 .1 0 0 0 .1 0 .1 0 0 0M32.4 55.6s.1 0 0 0c.1 0 0 0 0 0M32.5 55.6c.1 0 .1.1 0 0 .1.1.1 0 0 0m2.8.1s-.1 0 0 0m-2.6 0h0m2.5 0s-.1 0 0 0c-.1 0 0 0 0 0m-.1 0s-.1 0 0 0c-.1 0 0 0 0 0m-2.3 0c.1 0 .1 0 0 0 .1 0 .1 0 0 0M32.9 55.7h0m2.1 0s-.1 0 0 0c-.1 0 0 0 0 0m-.1 0c0 .1 0 .1 0 0 0 .1 0 .1 0 0m-1.9.1s.1 0 0 0c.1 0 0 0 0 0m1.9 0s-.1 0 0 0c-.1 0 0 0 0 0m-1.8 0h.2-.2m1.7 0s-.1 0 0 0c-.1 0 0 0 0 0m-.1 0s-.1 0 0 0c-.1 0 0 0 0 0m-1.4 0h0m1.3 0c-.1 0-.1 0 0 0-.1 0-.1 0 0 0m-.1 0s0 .1 0 0c0 .1 0 0 0 0m0 .1c-.1 0-.1 0 0 0-.1 0-.1 0 0 0m-1.1 0c.1 0 .1 0 0 0 .1 0 .1 0 0 0m.1 0h0m.9 0c-.1 0-.1 0 0 0-.1 0-.1 0 0 0M33.6 55.9s.1 0 0 0c.1 0 0 0 0 0m.7 0c-.1 0-.1 0 0 0-.1 0-.1 0 0 0m-.6 0s.1 0 0 0c.1 0 0 0 0 0M33.8 55.9s0 .1 0 0c0 .1 0 0 0 0m.1.1"/><path class="st3" d="M65.1 28.6c-.3.2-.5.4-.8.6-.8 1.3-1.7 2.3-2.6 3.3-2.1 2-4.5 3.3-6.8 3.8h-.1c-.1 0-.2 0-.2-.1-10.6 6.5-23.3 11-37 13 4 2.6 8.7 4.6 14.1 6H32.8C52 51.4 62.1 42.1 65.1 28.6"/><path class="st0" d="M103.3 12.2l-.4.2c-.2.1-.7.1-1 .2h-.3l-.2.1c-3 1.4-3.6 3.5-3.7 5.1v.4c.3 1.6.5 2.5.6 3.1h-2.1c-1.6 0-3.7.1-6.3.3v-2.2c0-.5 0-1.7-.8-2.9-.9-1.4-2.4-2.3-4.6-2.8l-.4-.1-.4.1c-1.7.4-3.6 1.1-4.3 2.2h-.1l-.3 1c-.2.5-.8 1.7-.8 10.1v.9c0 2.4.1 5 .2 7.9-.1.7-.2 1.4-.2 2.1v.4c.4 2.3 1.4 3.9 2.7 4.8 1.2.8 2.4.8 2.9.8h.5c3.5-.6 5.3-2.8 5.3-6.2v-4.5c.4-.1 1.4-.3 3.6-.4h5.4c-.1.6-.3 1.8-.8 4v.4c0 .5.1 1 .2 1.7v.2l.1.2c.6 1.3 1.3 2.3 2.2 3 1 .7 2.1 1.1 3.4 1.1.1 0 .4 0 1.8-.4h.1l.1-.1c1.6-.7 2.8-2.1 3.5-4.2.6-1.8 1-4.3 1-7.3V30c0-3.2-.1-5.2-.2-6.2l-.2-1.4c-.1-3.1-.6-5.5-1.5-7.2-1.1-1.9-2.7-3-4.8-3h-.2zm.4 1.6c1.5.1 2.6.8 3.4 2.2.9 1.6 1.3 4.1 1.3 7.4v.7h.2c.1.6.2 2.1.2 6v1.3c0 5.6-1.2 9-3.5 10-1.2.3-1.4.3-1.5.3-1.8 0-3.2-1-4.1-3.1-.1-.6-.1-1.1-.2-1.4.8-3.8.9-4.7.9-5v-.8l-2-.3h-5.2c-3.9.2-5.2.6-5.2 1.6v4.9c0 2.7-1.2 4.2-3.9 4.6h-.3c-.8 0-3.2 0-4.1-4.3 0-.6.1-1.3.2-1.9v-.2c-.1-2.9-.2-5.5-.2-7.9V27c0-7.2.4-8.9.7-9.4h.6v-.7s0-.8 3.3-1.6c4.1.9 4.1 3.3 4.1 4v1.9l-.4 2.2.9-.1c3.1-.3 5.5-.4 7.3-.4h3.9v-.7c0-.3-.1-1.1-.8-4.4 0-1.6.9-2.8 2.7-3.6.8-.1 1.3-.2 1.7-.4M127.9 24.5c1.1-.8 2.2-1.2 3.2-1.2.5 0 1 .1 1.6.3 1 .4 2.1 1.1 2.2 2.5-.7 2.9-2.3 4.3-4.9 4.3h-1.3c-1.2 0-1.9-.6-2.3-2v-.8c-.1-.8.5-1.9 1.5-3.1m2.7-12.9h-.1c-2.3.3-4.4.9-6.2 1.5l-.1.1-.1.1c-3.1 1.9-5.4 4.1-6.9 6.5-1.6 2.4-2.4 5.2-2.4 8.1v.2c.1 1.6.3 2.8.6 3.8 2.4 6.6 6.9 9.9 13.6 9.9h.8c2.1 0 4.5-.5 7.1-1.6h.1l.1-.1c3-1.8 5.3-3.8 6.8-6 1.6-2.3 2.3-4.9 2.3-7.7 0-1.3-.3-3.1-1-5.3l-.1-.2-.1-.2c-1.8-3-4-5.3-6.3-6.8-2.4-1.5-5.1-2.3-8-2.3h-.1zm-2 20.4h1.3c3.5 0 5.7-2 6.6-5.7v-.2c0-1.9-1.1-3.3-3.2-4.2-.7-.3-1.4-.4-2.2-.4-1.4 0-2.8.5-4.2 1.6h-.1v.1c-1.4 1.6-2.1 3-2.1 4.2v1.1c.6 2.9 2.5 3.5 3.9 3.5m2.1-18.8c2.6 0 5 .7 7.2 2.1 2.2 1.4 4.1 3.5 5.8 6.3.6 2 .9 3.7.9 4.8 0 2.4-.7 4.7-2.1 6.7-1.4 2-3.5 3.9-6.3 5.5-2.5 1-4.7 1.5-6.5 1.5h-.7c-6 0-9.9-2.9-12.1-8.8-.2-.8-.4-1.9-.5-3.4 0-2.6.7-5 2.1-7.2 1.4-2.2 3.6-4.2 6.4-6 1.7-.6 3.6-1.1 5.8-1.5M162.9 24.8l.1-.1v-.2c.2-.6.6-2.6 4.2-2.6h.6c1.1 0 2.1.2 2.7.5.6.3.8.6.8 1.2v.2c0 .1 0 .2-.2.3-.1.1-.4.3-1.1.5-1.2.3-2.6.3-3.3.3H164c-.5 0-.9 0-1.1-.1zm4.4-14.3c-1.4 0-3.3.3-5.7 1h-.2c-3.3 1.2-5.9 3.1-7.6 5.5-1.7 2.4-2.5 5.5-2.5 9.1 0 2.5.8 6.5 2.3 11.8.2 2 .8 3.5 1.8 4.5 1 1.2 2.5 1.7 4.3 1.7H160l.2-.1c4.3-1.1 5.2-4 5.2-6.2 0-.5 0-.9-.1-1.3 3.4-.1 6.5-.5 9.1-1.4 5.3-2 8-5.8 8-11.3v-.4c0-1-.2-2.2-.6-3.6v-.2c-1.2-3-3.1-5.3-5.5-6.8-2.4-1.6-5.4-2.3-9-2.3m-3.4 16h2.7c1.5 0 6.2 0 6.2-2.8v-.2c0-2.8-2.8-3.3-5.1-3.3h-.6c-2.2 0-5 .7-5.8 3.8-.2.3-.2.7-.2 1.4v.4l.4.2c.6.4 1.4.5 2.4.5m3.4-14.4c6.5 0 10.8 2.6 13 8.1.4 1.3.5 2.3.5 3.2v.4c0 4.9-2.3 8-6.9 9.8-2.7.9-5.9 1.3-9.6 1.3h-.7v.1h-.6l.5 1c.2.4.3 1 .3 1.8 0 2.4-1.3 4-4 4.6h-.1c-2.6 0-4.1-1.6-4.4-4.9v-.2c-1.5-5.2-2.2-9-2.2-11.4 0-6.5 3-10.8 9-13 2.2-.5 4-.8 5.2-.8M202.3 20.7c.5-.3.9-.4 1.3-.4.3 0 .6.1 1.1.6.1.1.1.2.1.3-.1.1-.4.5-2.1.9-1 .2-1.7.3-2.2.3h-.1c.2-.5.9-1.1 1.9-1.7m1-10.4c-1.9 0-4.2.7-6.7 2l-.1.1-.1.1c-3.2 2.3-5.6 5-7.2 7.9-1.6 2.9-2.4 6.2-2.4 9.7 0 2.6.6 5 1.8 7.3v.2c1.5 2.3 3.3 4 5.3 5.1 2.1 1.1 4.4 1.7 7.1 1.7h1.1c3.6-.3 6.4-1 8.2-2.2 2-1.2 3.1-2.9 3.1-5V37c-.1-.9-.4-2.3-1.2-3.4-1-1.4-2.4-2.1-4.2-2.1H207.7l-.2.1c-4.8 1.3-5.7 1.5-5.9 1.5-1.4 0-2.1-.3-2.5-.7h.5c2 0 4.2-.3 6.6-.8h.2c3-1 5.2-2.2 6.7-3.8 1.6-1.7 2.4-3.8 2.5-6.1v-.2c-.1-1.4-.4-2.5-.6-3.1-2.8-5.5-6.6-8.1-11.7-8.1M200.4 24c.7 0 1.5-.1 2.6-.4.8-.2 3.4-.8 3.4-2.5 0-.4-.2-.8-.5-1.2-.6-.8-1.4-1.3-2.4-1.3-.6 0-1.4.2-2.1.6-1.7 1-2.7 2-2.9 3.1v.3c.1.5.3 1.4 1.9 1.4m2.9-12.1c4.5 0 7.7 2.2 9.8 6.8.1.3.4 1 .5 2.6 0 3.9-2.6 6.7-8 8.4-2.3.5-4.4.7-6.3.7h-2.6v1c.3 1.4 1.3 3 4.7 3 .4 0 1.6-.2 6.4-1.5h.1c2.9 0 3.6 2.3 3.9 4.1 0 1.5-.8 2.7-2.3 3.6-1.6 1-4.2 1.6-7.5 1.9h-1c-4.7 0-8.3-2-11-6.1-1.1-2-1.6-4.2-1.6-6.5 0-3.2.8-6.2 2.2-8.9 1.5-2.7 3.8-5.2 6.7-7.4 2.3-1.1 4.3-1.7 6-1.7M236.5 5.3h-.6c-1.6 0-3.8.7-5.2 4.2v.2c-.3 1.2-.6 2.7-.8 4.5-4.1.1-6.8.9-8.2 2.5l-.1.1-.1.1c-.7 1.2-1 2.5-1 3.6 0 1.8.7 3.3 2.1 4.3 1.2.9 2.6 1.2 3.5 1.3h.6l2.4-.4h.1c-.2 3.5-.3 5.6-.3 6.4v.1c.2 3 .9 5.4 2.1 7.1 1.3 1.7 3.1 2.8 5.5 3.3 1.1.2 2.1.3 3.1.3 1.7 0 3.1-.3 4.2-1 1.1-.8 1.9-1.9 2.2-3.4.2-.8.2-1.5.2-2.1 0-1.2-.3-2-.8-2.7-.6-.7-1.4-1.1-2.6-1.2-1.8-.1-2.3-.5-2.3-.6 0-.8 0-2.7.1-5.6l3.8.6h1.1c.4 0 1.5 0 2.6-.8 1.2-.8 2-2.3 2.5-4.3v-.9c0-1.3-.4-3.1-2.5-4.4-1.5-1-3.8-1.6-6.7-1.9h-.1c.1-1.1.3-2.4.6-3.9v-.3l-.1-.3c-.2-.9-.5-2.2-1.3-3.2-.9-1-2.3-1.6-4-1.6m0 1.6c2.6 0 3.3 2.2 3.7 3.9-.3 2-.5 3.6-.7 4.9l-.1.7.7.1c.3 0 .7.1 1.1.1 2.7.2 4.7.8 6 1.6 1.2.8 1.8 1.7 1.8 3v.5c-.9 3.8-2.8 3.8-3.5 3.8h-.9l-4.7-.8h-.9v.7c-.1 3.5-.2 5.7-.2 6.7 0 1.9 2.9 2.1 3.9 2.2 1.3.1 1.8.8 1.8 2.3 0 .5-.1 1.1-.2 1.8-.4 2.1-2 3.1-4.8 3.1-.8 0-1.8-.1-2.8-.3-2-.3-3.4-1.2-4.5-2.6-1-1.4-1.6-3.5-1.8-6.2 0-.9.1-3.4.4-7.3v-.7h-.2V24l-4.3.7c-1.9-.3-4.3-1.1-4.3-4.1 0-.9.3-1.8.8-2.8 1.1-1.3 3.7-2 7.6-2h.9l.1-.6c.2-2.1.5-3.8.8-5.1.9-2.1 2.1-3.1 3.7-3.1h.6zM271.7 10.7h-2.3c-.2 0-1 0-4.1.6h-.2c-3.4 1.1-5.9 2.5-7.6 4.3-1.8 1.9-2.7 4.2-2.7 6.9 0 2.5.7 4.6 2.1 6.3 1.3 1.5 3.2 2.7 5.6 3.5h-.7l-.3.1c-1.5.6-2.6 1.3-3.3 2.3-.8 1-1.3 2.2-1.3 3.6v.2l.1.2.3 1.4v.2c.5 1.4 1.3 2.4 2.5 3.1 1.1.6 2.5.9 4.2.9h1.7c2.4 0 5-.5 7.7-1.6h.2c5.3-2.9 8-6.4 8-10.3v-1c0-.9-.1-1.2-.1-1.4l-.1-.3v-.1c-.8-2.5-2.2-4.4-4.3-5.8h1c1.7 0 3-.7 4-1.9.8-1.1 1.1-2.3 1.3-3.1v-.4c0-1-.3-2.1-.8-3.1l-.1-.2-.2-.2c-2.6-2.8-6.2-4.2-10.6-4.2m0 1.6c3.9 0 7.1 1.3 9.5 3.7.4.8.6 1.6.6 2.4-.3 1.6-1.1 3.8-3.7 3.8h-.6c-.9 0-2.4-.4-4.3-1.3h-.2c-1.1-.3-2.3-.4-3.4-.5h-.3c-1.2 0-2.3.4-3.5 1.3l-1.7 1.2h2.1c3.9 0 7 .7 9.2 1.9 2.2 1.2 3.7 3 4.4 5.5v.2c0 .1.1.3.1.9v1c0 3.3-2.4 6.3-7.2 8.9-2.5 1-4.9 1.5-7.1 1.5h-1.7c-2.9 0-4.6-1-5.2-2.9l-.3-1.4c0-2 1.2-3.4 3.6-4.4h1.5c1.8.4 2.1.4 2.2.4h.7c1.1 0 2.4-.3 3.9-1l.4-.2v-.6c0-.8-.9-1-2.3-1.2-1.1-.2-2.9-.3-5.1-.5-4.7-1.4-7-4.2-7-8.4 0-4.5 3-7.6 9.2-9.6 2.5-.5 3.4-.6 3.8-.6h2.4z"/><path class="st1" d="M108.9 31.3V30c0-3.9-.1-5.4-.2-6h-.2v-.7c0-3.3-.5-5.8-1.3-7.4-.8-1.4-1.9-2.1-3.4-2.2-.4.2-1 .3-1.6.4-1.8.8-2.7 2-2.7 3.6.7 3.3.8 4.1.8 4.4v.7h-3.9c-1.8 0-4.3.1-7.3.4l-1.1.2.3-2.1v-1.9c0-.8 0-3.2-4.1-4-3.2.8-3.2 1.5-3.2 1.5v.7h-.5c-.2.4-.7 2.2-.7 9.4v.9c0 2.4.1 5.1.2 7.9v.2c-.1.6-.2 1.3-.2 1.9.8 4.3 3.3 4.3 4.1 4.3h.3c2.7-.5 3.9-2 3.9-4.6v-4.9c0-1 1.3-1.4 5.2-1.6h5.2l2 .3v.8c0 .3-.1 1.2-.9 5 0 .4.1.9.2 1.4.9 2.1 2.2 3.1 4.1 3.1 0 0 .3 0 1.5-.3 2.3-1.1 3.5-4.5 3.5-10.1M136.5 26.3c-.8 3.8-3.1 5.7-6.6 5.7h-1.3c-1.4 0-3.2-.6-3.9-3.4v-1.1c0-1.2.7-2.6 2.1-4.2v-.1h.1c1.4-1.1 2.8-1.6 4.2-1.6.7 0 1.5.1 2.2.4 2.1.9 3.2 2.3 3.2 4.3zm1.4-11c-2.1-1.4-4.5-2.1-7.2-2.1-2.2.3-4.2.8-5.8 1.4-2.8 1.8-5 3.8-6.4 6-1.4 2.2-2.1 4.6-2.1 7.2.1 1.5.3 2.6.5 3.4C119 37.1 123 40 129 40h.8c1.9 0 4.1-.5 6.5-1.5 2.8-1.6 4.9-3.5 6.3-5.5 1.4-2 2.1-4.3 2.1-6.7 0-1.2-.3-2.8-.9-4.8-1.8-2.7-3.8-4.8-5.9-6.2M172.8 23.8c0 2.8-4.7 2.8-6.2 2.8h-2.7c-1 0-1.8-.1-2.4-.4l-.4-.2v-.4c0-.6.1-1.1.2-1.4.8-3.2 3.6-3.9 5.8-3.9h.6c2.3 0 5.1.6 5.1 3.3v.2zm8.1 0v-.4c0-.8-.2-1.9-.5-3.2-2.2-5.4-6.5-8.1-13-8.1-1.3 0-3.1.3-5.3.9-6.1 2.2-9 6.5-9 13 0 2.4.8 6.2 2.2 11.4v.2c.4 3.3 1.8 4.9 4.4 4.9h.1c2.7-.7 4-2.2 4-4.6 0-.8-.1-1.4-.3-1.8l-.5-1h.6v-.2h.7c3.7 0 7-.4 9.6-1.3 4.7-1.8 7-5 7-9.8M198.6 22.4c.2-1.1 1.1-2.1 2.9-3.1.8-.4 1.5-.6 2.1-.6.9 0 1.7.4 2.4 1.3.3.4.5.8.5 1.2 0 1.7-2.5 2.3-3.4 2.5-1.1.3-1.9.4-2.6.4-1.7 0-1.9-.9-1.9-1.3v-.4m-1.9 9.1v-1h2.6c1.9 0 4-.2 6.3-.7 5.4-1.7 8-4.5 8-8.4-.2-1.6-.4-2.3-.5-2.6-2.1-4.6-5.3-6.8-9.8-6.8-1.6 0-3.6.6-5.9 1.8-3 2.2-5.3 4.7-6.7 7.4-1.5 2.7-2.2 5.7-2.2 8.9 0 2.3.5 4.5 1.6 6.5 2.7 4.1 6.3 6.1 11 6.1h.9c3.3-.3 5.9-.9 7.5-1.9 1.5-.9 2.3-2.1 2.3-3.6-.3-1.8-1-4.1-3.9-4.1h-.1c-4.8 1.4-5.9 1.5-6.4 1.5-3.3-.1-4.4-1.7-4.7-3.1M247.1 18.2c-1.3-.8-3.3-1.4-6-1.6-.4 0-.7-.1-1.1-.1l-.7-.1.1-.7c.1-1.3.4-2.9.7-4.9-.3-1.7-1.1-3.9-3.7-3.9h-.6c-1.6 0-2.9 1-3.7 3.1-.3 1.3-.6 3-.8 5.1l-.1.6h-.9c-3.9 0-6.5.7-7.6 2-.5 1-.8 1.9-.8 2.8 0 2.9 2.4 3.7 4.3 4.1l4.3-.7v.3h.2v.7c-.2 4-.4 6.4-.4 7.3.2 2.7.8 4.8 1.8 6.2 1 1.4 2.5 2.3 4.5 2.6 1 .2 2 .3 2.8.3 2.8 0 4.3-1 4.8-3.1.1-.7.2-1.3.2-1.8 0-1.5-.6-2.2-1.8-2.3-1-.1-3.9-.3-3.9-2.2 0-1 .1-3.2.2-6.7v-.7h.9l4.7.8h.9c.7 0 2.6 0 3.5-3.8V21c0-1.1-.6-2.1-1.8-2.8"/><path class="st1" d="M108.9 31.3V30c0-3.9-.1-5.4-.2-6l-.2-.7c0-3.3-.5-5.8-1.3-7.4-.8-1.4-1.9-2.1-3.4-2.2-.4.2-1 .3-1.6.4-1.8.8-2.7 2-2.7 3.6.7 3.3.8 4.1.8 4.4v.7h-3.9c-1.8 0-4.3.1-7.3.4l-1.1.2.3-2.1v-1.9c0-.8 0-3.2-4.1-4-3.2.8-3.2 1.5-3.2 1.5l-.5.7c-.2.4-.7 2.2-.7 9.4v.9c0 2.4.1 5.1.2 7.9v.2c-.1.6-.2 1.3-.2 1.9.8 4.3 3.3 4.3 4.1 4.3h.3c2.7-.5 3.9-2 3.9-4.6v-4.9c0-1 1.3-1.4 5.2-1.6h5.2l2 .3v.8c0 .3-.1 1.2-.9 5 0 .4.1.9.2 1.4.9 2.1 2.2 3.1 4.1 3.1 0 0 .3 0 1.5-.3 2.3-1.1 3.5-4.5 3.5-10.1M136.5 26.3c-.8 3.8-3.1 5.7-6.6 5.7h-1.3c-1.4 0-3.2-.6-3.9-3.4v-1.1c0-1.2.7-2.6 2.1-4.2v-.1h.1c1.4-1.1 2.8-1.6 4.2-1.6.7 0 1.5.1 2.2.4 2.1.9 3.2 2.3 3.2 4.3zm1.4-11c-2.1-1.4-4.5-2.1-7.2-2.1-2.2.3-4.2.8-5.8 1.4-2.8 1.8-5 3.8-6.4 6-1.4 2.2-2.1 4.6-2.1 7.2.1 1.5.3 2.6.5 3.4C119 37.1 123 40 129 40h.8c1.9 0 4.1-.5 6.5-1.5 2.8-1.6 4.9-3.5 6.3-5.5 1.4-2 2.1-4.3 2.1-6.7 0-1.2-.3-2.8-.9-4.8-1.8-2.7-3.8-4.8-5.9-6.2M172.8 23.8c0 2.8-4.7 2.8-6.2 2.8h-2.7c-1 0-1.8-.1-2.4-.4l-.4-.2v-.4c0-.6.1-1.1.2-1.4.8-3.2 3.6-3.9 5.8-3.9h.6c2.3 0 5.1.6 5.1 3.3v.2zm8.1 0v-.4c0-.8-.2-1.9-.5-3.2-2.2-5.4-6.5-8.1-13-8.1-1.3 0-3.1.3-5.3.9-6.1 2.2-9 6.5-9 13 0 2.4.8 6.2 2.2 11.4v.2c.4 3.3 1.8 4.9 4.4 4.9h.1c2.7-.7 4-2.2 4-4.6 0-.8-.1-1.4-.3-1.8l-.5-1h.6v-.2h.7c3.7 0 7-.4 9.6-1.3 4.7-1.8 7-5 7-9.8M198.6 22.4c.2-1.1 1.1-2.1 2.9-3.1.8-.4 1.5-.6 2.1-.6.9 0 1.7.4 2.4 1.3.3.4.5.8.5 1.2 0 1.7-2.5 2.3-3.4 2.5-1.1.3-1.9.4-2.6.4-1.7 0-1.9-.9-1.9-1.3v-.4m-1.9 9.1v-1h2.6c1.9 0 4-.2 6.3-.7 5.4-1.7 8-4.5 8-8.4-.2-1.6-.4-2.3-.5-2.6-2.1-4.6-5.3-6.8-9.8-6.8-1.6 0-3.6.6-5.9 1.8-3 2.2-5.3 4.7-6.7 7.4-1.5 2.7-2.2 5.7-2.2 8.9 0 2.3.5 4.5 1.6 6.5 2.7 4.1 6.3 6.1 11 6.1h.9c3.3-.3 5.9-.9 7.5-1.9 1.5-.9 2.3-2.1 2.3-3.6-.3-1.8-1-4.1-3.9-4.1h-.1c-4.8 1.4-5.9 1.5-6.4 1.5-3.3-.1-4.4-1.7-4.7-3.1M247.1 18.2c-1.3-.8-3.3-1.4-6-1.6-.4 0-.7-.1-1.1-.1l-.7-.1.1-.7c.1-1.3.4-2.9.7-4.9-.3-1.7-1.1-3.9-3.7-3.9h-.6c-1.6 0-2.9 1-3.7 3.1-.3 1.3-.6 3-.8 5.1l-.1.6h-.9c-3.9 0-6.5.7-7.6 2-.5 1-.8 1.9-.8 2.8 0 2.9 2.4 3.7 4.3 4.1l4.3-.7v.3h.2v.7c-.2 4-.4 6.4-.4 7.3.2 2.7.8 4.8 1.8 6.2 1 1.4 2.5 2.3 4.5 2.6 1 .2 2 .3 2.8.3 2.8 0 4.3-1 4.8-3.1.1-.7.2-1.3.2-1.8 0-1.5-.6-2.2-1.8-2.3-1-.1-3.9-.3-3.9-2.2 0-1 .1-3.2.2-6.7v-.7h.9l4.7.8h.9c.7 0 2.6 0 3.5-3.8V21c0-1.1-.6-2.1-1.8-2.8M281.2 16c-2.4-2.5-5.6-3.7-9.5-3.7h-2.3c-.4 0-1.3.1-3.8.5-6.2 2-9.2 5.1-9.2 9.6 0 4.3 2.3 7 7 8.4 2.2.1 4 .3 5.1.5 1.4.2 2.3.4 2.3 1.2v.6l-.4.2c-1.5.7-2.8 1-3.9 1h-.7c-.1 0-.3 0-2.2-.4h-1.5c-2.4 1-3.6 2.4-3.6 4.4l.3 1.4c.6 2 2.4 2.9 5.2 2.9h1.7c2.2 0 4.6-.5 7.1-1.5 4.8-2.6 7.2-5.6 7.2-8.9v-1c0-.7-.1-.9-.1-.9v-.2c-.7-2.4-2.1-4.2-4.4-5.5-2.3-1.3-5.4-1.9-9.2-1.9h-2.1l1.7-1.2c1.2-.8 2.3-1.3 3.5-1.3h.3c1.1.1 2.3.3 3.4.5h.2c1.9.9 3.3 1.3 4.3 1.3h.6c2.6 0 3.3-2.1 3.7-3.8-.1-.6-.3-1.4-.7-2.2"/><path class="st2" d="M171.1 23.8c-2.7 0-5.4.1-8 .2-.1.2-.1.4-.2.5v.2l-.1.1c.3.1.6.1 1.1.1h2.7c.7 0 2.1 0 3.3-.3.7-.2 1-.4 1.1-.5.1-.1.1-.2.1-.3"/><path class="st2" d="M172.8 23.8h-1.6c0 .1 0 .2-.2.3-.1.1-.4.3-1.1.5-1.2.3-2.6.3-3.3.3h-2.7c-.5 0-.8 0-1.1-.1l.1-.1v-.2c0-.1.1-.3.2-.5h-1.7v.1c-.2.3-.2.7-.2 1.4v.4l.4.2c.6.3 1.4.4 2.4.4h2.7c1.4 0 6.1 0 6.1-2.7zM199.3 23.9c.2.1.6.2 1 .2s.8 0 1.4-.1c-.7-.1-1.5-.1-2.4-.1"/><path class="st3" d="M200.3 24zm.2 0"/><path class="st2" d="M134.7 25.2c-2.6.2-5.2.3-7.7.5-.4.7-.6 1.3-.6 1.8v.8c.4 1.4 1 2 2.3 2h1.3c2.6 0 4.3-1.4 4.9-4.3-.1-.2-.1-.5-.2-.8"/><path class="st2" d="M136.3 25.1c-.6 0-1.1.1-1.7.1.1.3.2.5.2.9-.7 2.9-2.3 4.3-4.9 4.3h-1.3c-1.2 0-1.9-.6-2.3-2v-.8c0-.5.2-1.1.6-1.8-.6 0-1.3.1-1.9.1-.2.6-.4 1.1-.4 1.6v1.1c.7 2.8 2.5 3.4 3.9 3.4h1.3c3.5 0 5.7-2 6.6-5.7v-.2c.1-.3 0-.6-.1-1"/><path d="M136.5 26.2zm-11.8 1.3" fill="#c51343"/><g><defs><path id="SVGID_3_" d="M0 0h283.5v57.6H0z"/></defs><clipPath id="SVGID_4_"><use xlink:href="#SVGID_3_" overflow="visible"/></clipPath><path class="st5" d="M108.8 28.6v1.2c.1-.5.1-.9 0-1.2M108.9 30v1.3V30M80 34c0 .6 0 1.2.1 1.8-.1-.6-.1-1.2-.1-1.8"/><path class="st6" d="M108.8 27.3c-12.6 1.2-22.5 2.5-28.9 3.4 0 1 .1 2.1.1 3.2 0 .6 0 1.2.1 1.8v.2c-.1.6-.2 1.3-.2 1.9.8 4.3 3.3 4.3 4.1 4.3h.3c2.7-.5 3.9-2 3.9-4.6v-4.9c0-1 1.3-1.4 5.2-1.6h5.2l2 .3v.8c0 .3-.1 1.2-.9 5 0 .4.1.9.2 1.4.9 2.1 2.2 3.1 4.1 3.1 0 0 .3 0 1.5-.3 2.3-1 3.5-4.4 3.5-10V30v-1.2c-.2-.7-.2-1.1-.2-1.5"/><path class="st5" d="M136.3 25.1c.1.3.1.7.1 1.1.1-.4 0-.7-.1-1.1m-11.3.8c-.2.6-.4 1.1-.4 1.6.1-.5.2-1 .4-1.6m11.5.4c-.8 3.8-3.1 5.7-6.6 5.7h-1.3c-1.4 0-3.2-.6-3.9-3.4v-1.1 1.1c.7 2.8 2.5 3.4 3.9 3.4h1.3c3.5 0 5.7-1.9 6.6-5.7zM124.7 27.5s0 .1 0 0c0 .1 0 0 0 0m-8.3.4"/><path class="st6" d="M144.4 24.7c-2.8.1-5.5.3-8.1.5.1.3.1.7.1 1.1v.2c-.8 3.7-3.1 5.7-6.6 5.7h-1.3c-1.4 0-3.2-.6-3.9-3.4v-1.1c0-.5.1-1.1.4-1.6-3 .2-5.8.5-8.6.7 0 .4-.1.8-.1 1.3.1 1.5.3 2.6.5 3.4 2.1 5.9 6.1 8.8 12.1 8.8h.8c1.9 0 4.1-.5 6.5-1.5 2.8-1.6 4.9-3.5 6.3-5.5 1.4-2 2.1-4.3 2.1-6.7 0-.7 0-1.3-.2-1.9"/><path class="st5" d="M172.8 23.8c0 2.8-4.7 2.8-6.2 2.8h-2.7c-1 0-1.8-.1-2.4-.4l-.4-.2v-.4.4l.4.2c.6.3 1.4.4 2.4.4h2.7c1.5-.1 6.2-.1 6.2-2.8m-11.4.2s0 .1 0 0c0 .1 0 0 0 0M163.6 34.8v.2-.2zm-.6.2l.5 1c.2.4.3 1 .3 1.8 0-.8-.1-1.4-.3-1.8l-.5-1z"/><path class="st6" d="M180.9 23.7c-2.7 0-5.4 0-8.1.1 0 2.8-4.7 2.8-6.2 2.8h-2.7c-1 0-1.8-.1-2.4-.4l-.4-.2v-.4c0-.6.1-1.1.2-1.4v-.1c-2.8.1-5.6.2-8.3.3 0 .5-.1 1.1-.1 1.7v.1c0 2.4.8 6.2 2.2 11.4v.2c.4 3.3 1.8 4.9 4.4 4.9h.1c2.7-.7 4-2.2 4-4.6 0-.8-.1-1.4-.3-1.8l-.5-1h.6v-.2h.7c3.7 0 7-.4 9.6-1.3 4.9-2 7.2-5.2 7.2-10.1z"/><path class="st5" d="M199.3 23.9c.2.1.6.2 1 .2-.4-.1-.7-.1-1-.2m2.6 0c-.5.1-1 .1-1.4.1.4 0 .8 0 1.4-.1m-1.6.1c.1 0 .1 0 0 0 .1 0 .1 0 0 0M188.4 29.7"/></g><g><defs><path id="SVGID_5_" d="M0 0h283.5v57.6H0z"/></defs><clipPath id="SVGID_6_"><use xlink:href="#SVGID_5_" overflow="visible"/></clipPath><path class="st8" d="M188.4 30.000000000000004"/><path d="M189.5 23.7c-.7 1.8-1 3.8-1.1 5.8 0 2.3.5 4.5 1.6 6.5 2.7 4.1 6.3 6.1 11 6.1h.9c3.3-.3 5.9-.9 7.5-1.9 1.5-.9 2.3-2.1 2.3-3.6-.3-1.8-1-4.1-3.9-4.1h-.1c-4.8 1.4-5.9 1.5-6.4 1.5-3.3 0-4.4-1.6-4.7-3v-1h2.6c1.9 0 4-.2 6.3-.7 3.8-1.3 6.2-3 7.2-5.4-3.8-.2-7.5-.3-11.1-.4-.5.1-1 .1-1.4.1-.4 0-.8-.1-1-.2-3.2.4-6.5.3-9.7.3" clip-path="url(#SVGID_6_)" fill="#c51343"/><path class="st8" d="M238.8 25.8c-.1 3.1-.2 5.1-.2 6.1.1-1 .1-3 .2-6.1M230.4 30.400000000000002c0 .9-.1 1.6-.1 1.9.1-.3.1-1 .1-1.9"/></g><g><defs><path id="SVGID_7_" d="M0 0h283.5v57.6H0z"/></defs><clipPath id="SVGID_8_"><use xlink:href="#SVGID_7_" overflow="visible"/></clipPath></g><g><defs><path id="SVGID_9_" d="M0 0h283.5v57.6H0z"/></defs><clipPath id="SVGID_10_"><use xlink:href="#SVGID_9_" overflow="visible"/></clipPath><path class="st11" d="M230.7 25.2c-.1 2.1-.2 3.8-.3 5.1 0 .9-.1 1.6-.1 1.9.2 2.7.8 4.8 1.8 6.2 1 1.4 2.5 2.3 4.5 2.6 1 .2 2 .3 2.8.3 2.8 0 4.3-1 4.8-3.1.1-.7.2-1.3.2-1.8 0-1.5-.5-2.2-1.8-2.3-1-.1-3.9-.3-3.9-2.2 0-1 .1-3 .2-6.1-2.8-.2-5.5-.4-8.2-.6"/><path class="st12" d="M280.09999999999997 31.2s0 .1 0 0c0 .1 0 0 0 0m0 .1v1-1"/><path class="st11" d="M258.1 27.7c1.1 1.4 2.9 2.4 5.2 3.1 2.2.1 4 .3 5.1.5 1.4.2 2.3.4 2.3 1.2v.6l-.4.2c-1.5.7-2.8 1-3.9 1h-.7c-.1 0-.3 0-2.2-.4H262c-2.4 1-3.6 2.4-3.6 4.4l.3 1.4c.6 2 2.4 2.9 5.2 2.9h1.7c2.2 0 4.6-.5 7.1-1.5 4.8-2.6 7.2-5.6 7.2-8.9v-1-.7c-7.2-1.1-14.5-2-21.8-2.8"/></g></svg>